<?xml version="1.0" standalone="no"?>
<!DOCTYPE svg PUBLIC "-//W3C//DTD SVG 20010904//EN"
 "http://www.w3.org/TR/2001/REC-SVG-20010904/DTD/svg10.dtd">
<svg version="1.0" xmlns="http://www.w3.org/2000/svg"
 width="715" height="412" viewBox="0 0 312.000000 317.000000"
 preserveAspectRatio="xMidYMid meet">

<g transform="translate(-100.000000,450.000000) scale(0.17000,-0.17000)"
fill="#2D8EE5" stroke="none">
<path d="M1393 2516 c-97 -32 -190 -131 -212 -226 -6 -25 -11 -86 -11 -137 l0
-92 -27 -3 c-28 -3 -28 -3 -24 -73 2 -38 8 -101 15 -140 l12 -70 109 0 110 0
12 85 c7 47 14 109 15 139 3 51 1 55 -22 61 -24 6 -25 9 -28 93 -3 100 12 144
60 179 71 50 179 24 219 -54 18 -34 19 -63 19 -363 0 -311 -1 -325 -19 -325
-40 0 -41 -12 -39 -421 l3 -394 140 0 140 0 3 401 2 402 -29 10 -30 11 -3 353
-3 353 -27 51 c-30 58 -88 113 -150 145 -54 28 -173 35 -235 15z m178 -52 c40
-12 67 -29 105 -68 81 -80 84 -98 84 -483 l0 -323 -29 0 -30 0 -3 338 -3 339
-30 49 c-42 68 -91 94 -177 94 -60 0 -71 -3 -110 -33 -68 -51 -88 -102 -88
-220 l0 -98 -32 3 -33 3 1 110 c0 92 4 117 22 151 64 125 189 178 323 138z
m-343 -501 c3 -38 6 -43 27 -43 21 0 24 5 27 43 3 37 6 42 28 42 25 0 25 -1
22 -70 -4 -119 -3 -116 -74 -113 -71 3 -70 2 -83 122 l-7 67 29 -3 c25 -3 28
-7 31 -45z m592 -789 l0 -355 -32 3 -33 3 -3 133 c-3 131 -3 133 -25 130 -21
-3 -22 -7 -25 -135 l-3 -133 -29 0 -30 0 0 355 0 355 90 0 90 0 0 -356z"/>
<path d="M1700 1295 c0 -20 5 -25 25 -25 20 0 25 5 25 25 0 20 -5 25 -25 25
-20 0 -25 -5 -25 -25z"/>
<path d="M1700 1175 c0 -20 5 -25 25 -25 20 0 25 5 25 25 0 20 -5 25 -25 25
-20 0 -25 -5 -25 -25z"/>
</g>
</svg>