<?xml version="1.0" standalone="no"?>
<!DOCTYPE svg PUBLIC "-//W3C//DTD SVG 20010904//EN"
 "http://www.w3.org/TR/2001/REC-SVG-20010904/DTD/svg10.dtd">
<svg version="1.0" xmlns="http://www.w3.org/2000/svg"
 width="393.000000pt" height="362.000000pt" viewBox="0 0 393.000000 362.000000"
 preserveAspectRatio="xMidYMid meet">

<g transform="translate(0.000000,362.000000) scale(0.100000,-0.100000)"
fill="#000000" stroke="none">
<path d="M2150 3001 c-72 -22 -142 -77 -190 -148 -71 -104 -118 -225 -127
-323 l-5 -65 -367 -367 -366 -368 -57 0 c-103 0 -308 -94 -400 -183 -58 -56
-92 -137 -91 -217 1 -230 251 -363 446 -238 107 69 237 313 237 446 l0 57 368
368 368 368 69 4 c79 4 114 15 235 74 198 97 270 194 257 347 -8 112 -79 198
-193 239 -42 15 -143 18 -184 6z m145 -198 c13 -10 30 -35 36 -55 10 -31 9
-41 -5 -62 -33 -52 -218 -156 -276 -156 -27 0 -26 26 4 100 32 77 92 167 125
185 31 18 81 13 116 -12z m-1262 -1275 c11 -35 -61 -194 -116 -252 -29 -30
-41 -36 -76 -36 -60 0 -101 41 -101 101 0 34 6 47 33 73 39 36 117 80 190 107
63 22 64 22 70 7z"/>
<path d="M3013 2490 c-53 -22 -127 -89 -165 -151 -93 -152 -119 -229 -128
-380 0 -3 -93 -97 -207 -210 -115 -112 -281 -276 -370 -365 l-162 -161 -73 -5
c-116 -8 -299 -94 -390 -183 -93 -91 -118 -221 -63 -329 53 -106 141 -160 260
-160 110 -1 173 36 268 153 65 80 127 240 127 328 l0 58 374 368 c372 365 374
367 416 367 136 0 389 129 461 235 60 88 67 197 18 293 -50 102 -129 153 -244
159 -53 2 -82 -2 -122 -17z m155 -190 c68 -42 67 -118 -3 -176 -49 -39 -186
-104 -224 -104 -21 0 -23 3 -17 31 9 47 55 144 92 196 53 75 93 89 152 53z
m-1258 -1333 c-33 -85 -76 -163 -110 -198 -32 -33 -43 -39 -79 -39 -78 0 -126
79 -88 147 23 41 109 95 205 129 59 20 68 21 75 8 5 -9 4 -28 -3 -47z"/>
</g>
</svg>
