<?xml version="1.0" standalone="no"?>
<!DOCTYPE svg PUBLIC "-//W3C//DTD SVG 20010904//EN"
 "http://www.w3.org/TR/2001/REC-SVG-20010904/DTD/svg10.dtd">
<svg version="1.0" xmlns="http://www.w3.org/2000/svg"
 width="512.000000pt" height="512.000000pt" viewBox="0 0 512.000000 512.000000"
 preserveAspectRatio="xMidYMid meet">

<g transform="translate(0.000000,512.000000) scale(0.100000,-0.100000)"
fill="#2D8EE5" stroke="none">
<path d="M2824 4924 c-60 -21 -119 -76 -150 -139 -25 -53 -27 -70 -43 -330
-10 -151 -20 -277 -22 -279 -3 -3 -20 72 -38 167 -39 196 -51 237 -87 284 -33
44 -116 90 -175 98 -93 13 -196 -35 -251 -116 -56 -84 -56 -82 26 -754 41
-335 73 -612 70 -614 -8 -8 -118 30 -179 63 -35 18 -91 62 -135 107 -41 41
-90 86 -108 98 -44 31 -142 61 -197 61 -104 0 -237 -69 -291 -150 -29 -44 -36
-119 -14 -160 32 -60 481 -616 634 -785 95 -104 176 -196 180 -203 6 -10 -7
-30 -40 -63 l-48 -49 -236 0 -235 0 -215 -156 c-244 -177 -272 -202 -320 -281
-69 -113 -69 -112 -69 -851 l-1 -663 25 -24 24 -25 511 0 511 0 24 25 25 24 0
234 0 234 80 61 80 61 0 -295 0 -295 25 -24 24 -25 631 0 631 0 24 25 25 24 0
586 c0 524 2 585 16 585 27 0 119 101 132 146 28 95 8 168 -65 242 -28 28 -59
52 -67 52 -13 0 -16 15 -16 86 l0 86 50 55 c54 61 110 161 141 250 11 32 37
180 59 329 l40 272 153 383 c85 211 180 443 211 514 63 144 75 202 56 270 -16
56 -81 132 -135 156 -53 24 -147 24 -200 0 -59 -26 -97 -70 -154 -174 -28 -50
-51 -88 -51 -83 0 6 25 105 55 222 34 131 55 233 55 266 0 63 -25 121 -70 166
-47 47 -87 64 -160 69 -57 4 -72 1 -120 -24 -98 -50 -108 -72 -235 -516 -9
-32 -18 -57 -20 -55 -1 2 2 113 7 248 12 307 8 375 -27 446 -62 127 -214 186
-351 138z m175 -169 c49 -42 54 -73 47 -309 -8 -249 -32 -742 -46 -943 -11
-159 -6 -184 41 -203 36 -15 75 -6 93 23 8 12 87 274 176 582 90 308 169 570
177 583 41 66 153 41 153 -34 0 -15 -40 -189 -89 -388 -49 -199 -106 -434
-127 -524 l-38 -162 21 -28 c11 -15 31 -31 45 -36 55 -20 68 -2 275 374 107
195 204 363 215 373 47 40 138 3 138 -57 0 -13 -30 -93 -66 -178 -36 -84 -132
-319 -214 -523 l-147 -370 -37 -260 c-20 -143 -44 -282 -53 -310 -27 -86 -71
-162 -136 -237 l-62 -73 -3 -107 -4 -108 -444 0 c-420 0 -444 1 -435 17 5 10
15 46 21 80 23 116 -27 265 -114 339 -39 33 -116 64 -162 64 -56 0 -861 961
-837 999 17 28 73 60 117 66 79 12 120 -8 226 -109 148 -142 292 -211 466
-223 79 -6 83 -5 108 20 14 14 26 36 26 49 0 13 -36 317 -80 677 -71 590 -78
657 -65 687 17 41 66 68 110 60 60 -12 74 -39 112 -223 36 -182 133 -708 154
-838 9 -58 19 -85 35 -102 36 -36 100 -27 123 16 6 10 26 290 46 622 19 332
38 619 41 638 3 21 19 48 39 68 43 43 107 47 154 8z m-709 -2614 c50 -52 67
-120 49 -193 -11 -49 -24 -65 -175 -218 -91 -94 -165 -177 -168 -190 -3 -14
-7 -90 -8 -170 -4 -166 -15 -201 -89 -263 -64 -56 -111 -67 -274 -67 -127 0
-143 -2 -162 -20 -29 -27 -37 -56 -23 -89 20 -49 42 -54 221 -49 191 6 229 16
324 88 63 47 63 48 69 24 12 -45 -18 -90 -101 -150 -122 -88 -113 -64 -113
-310 l0 -214 -400 0 -401 0 3 617 3 618 28 56 c35 72 71 105 289 262 l176 127
128 0 129 0 -80 -80 c-75 -75 -82 -80 -123 -80 -82 0 -122 -81 -67 -135 21
-22 33 -25 102 -25 l77 0 246 244 c135 134 252 246 260 249 31 11 44 6 80 -32z
m256 -622 c18 -36 18 -63 -1 -99 -26 -51 -91 -73 -138 -48 -25 13 -197 159
-197 167 0 3 35 40 77 83 l76 77 84 -76 c47 -42 91 -89 99 -104z m949 136 c16
-15 25 -36 25 -55 0 -19 -9 -40 -25 -55 l-24 -25 -379 0 -379 0 -6 28 c-3 15
-21 51 -41 80 l-35 52 420 0 420 0 24 -25z m-1222 -388 c54 -50 61 -86 26
-131 -30 -39 -84 -36 -133 7 -35 30 -36 34 -26 67 5 19 10 63 10 98 l0 64 38
-30 c20 -17 58 -50 85 -75z m1087 -427 l0 -520 -520 0 -520 0 0 320 0 320 23
9 c66 25 124 106 136 189 6 42 8 45 49 58 60 17 113 56 142 104 l25 39 333 1
332 0 0 -520z"/>
<path d="M3346 3027 c-18 -18 -25 -42 -34 -113 -16 -123 -16 -131 13 -159 29
-30 73 -33 106 -7 18 15 25 36 35 108 18 128 17 142 -11 169 -31 32 -78 33
-109 2z"/>
<path d="M3303 2615 c-14 -10 -26 -38 -39 -91 -16 -68 -16 -80 -3 -103 18 -31
56 -46 93 -37 33 8 64 70 73 145 5 44 3 52 -20 75 -29 29 -71 34 -104 11z"/>
<path d="M1385 4455 c-22 -21 -25 -33 -25 -95 0 -62 3 -74 25 -95 15 -16 36
-25 55 -25 19 0 40 9 55 25 22 21 25 33 25 95 0 62 -3 74 -25 95 -15 16 -36
25 -55 25 -19 0 -40 -9 -55 -25z"/>
<path d="M1145 4215 c-22 -21 -25 -33 -25 -95 0 -62 3 -74 25 -95 15 -16 36
-25 55 -25 19 0 40 9 55 25 22 21 25 33 25 95 0 62 -3 74 -25 95 -15 16 -36
25 -55 25 -19 0 -40 -9 -55 -25z"/>
<path d="M1625 4215 c-22 -21 -25 -33 -25 -95 0 -62 3 -74 25 -95 15 -16 36
-25 55 -25 19 0 40 9 55 25 22 21 25 33 25 95 0 62 -3 74 -25 95 -15 16 -36
25 -55 25 -19 0 -40 -9 -55 -25z"/>
<path d="M1385 3975 c-22 -21 -25 -33 -25 -95 0 -62 3 -74 25 -95 15 -16 36
-25 55 -25 19 0 40 9 55 25 22 21 25 33 25 95 0 62 -3 74 -25 95 -15 16 -36
25 -55 25 -19 0 -40 -9 -55 -25z"/>
<path d="M4185 2295 c-22 -21 -25 -33 -25 -95 0 -62 3 -74 25 -95 15 -16 36
-25 55 -25 19 0 40 9 55 25 22 21 25 33 25 95 0 62 -3 74 -25 95 -15 16 -36
25 -55 25 -19 0 -40 -9 -55 -25z"/>
<path d="M3945 2055 c-22 -21 -25 -33 -25 -95 0 -62 3 -74 25 -95 15 -16 36
-25 55 -25 19 0 40 9 55 25 22 21 25 33 25 95 0 62 -3 74 -25 95 -15 16 -36
25 -55 25 -19 0 -40 -9 -55 -25z"/>
<path d="M4425 2055 c-22 -21 -25 -33 -25 -95 0 -62 3 -74 25 -95 15 -16 36
-25 55 -25 19 0 40 9 55 25 22 21 25 33 25 95 0 62 -3 74 -25 95 -15 16 -36
25 -55 25 -19 0 -40 -9 -55 -25z"/>
<path d="M4185 1815 c-22 -21 -25 -33 -25 -95 0 -62 3 -74 25 -95 15 -16 36
-25 55 -25 19 0 40 9 55 25 22 21 25 33 25 95 0 62 -3 74 -25 95 -15 16 -36
25 -55 25 -19 0 -40 -9 -55 -25z"/>
</g>
</svg>
