<?xml version="1.0" standalone="no"?>
<!DOCTYPE svg PUBLIC "-//W3C//DTD SVG 20010904//EN"
 "http://www.w3.org/TR/2001/REC-SVG-20010904/DTD/svg10.dtd">
<svg version="1.0" xmlns="http://www.w3.org/2000/svg"
 width="512.000000pt" height="512.000000pt" viewBox="0 0 512.000000 512.000000"
 preserveAspectRatio="xMidYMid meet">

<g transform="translate(0.000000,512.000000) scale(0.100000,-0.100000)"
fill="#2D8EE5" stroke="none">
<path d="M3115 5034 c-148 -20 -194 -29 -293 -55 -202 -53 -400 -145 -572
-267 -116 -83 -291 -249 -378 -361 -137 -174 -251 -398 -307 -601 -15 -52 -28
-100 -30 -105 -1 -6 -59 -25 -128 -42 -334 -85 -612 -246 -854 -496 -127 -132
-150 -166 -132 -200 34 -63 58 -52 192 88 172 181 323 293 519 385 96 45 268
104 337 115 40 7 43 6 37 -11 -4 -11 -10 -92 -13 -181 l-6 -162 -34 -12 c-54
-17 -69 -63 -32 -100 16 -16 29 -20 53 -16 l32 5 17 -101 c31 -182 123 -423
224 -587 255 -413 641 -698 1102 -814 l126 -32 -3 -36 c-3 -30 1 -40 23 -54
34 -22 71 -7 89 38 l14 32 181 0 c99 1 181 0 181 -1 0 -24 -76 -226 -116 -313
-264 -557 -819 -922 -1439 -947 -836 -34 -1566 557 -1710 1382 -47 269 -28
509 66 831 16 53 6 92 -25 100 -58 14 -80 -19 -126 -190 -108 -399 -66 -846
116 -1226 429 -894 1494 -1271 2384 -844 469 225 823 648 954 1142 l23 87 127
32 c608 156 1093 616 1275 1208 133 436 100 889 -94 1293 -257 536 -745 902
-1335 1002 -67 11 -391 22 -445 14z m355 -125 c548 -68 1008 -377 1273 -856
435 -788 161 -1776 -624 -2243 -171 -102 -414 -186 -609 -210 -107 -13 -363
-13 -455 0 -366 53 -698 221 -960 485 -586 592 -642 1534 -130 2190 85 109
221 240 335 325 111 82 335 197 467 240 86 27 259 64 343 73 79 8 281 6 360
-4z"/>
<path d="M3065 4555 c-5 -2 -45 -11 -87 -20 -43 -9 -85 -23 -93 -31 -21 -22
-19 -68 5 -89 20 -18 23 -18 114 3 52 12 104 22 116 22 11 0 32 11 46 25 27
27 26 59 -4 83 -14 11 -72 15 -97 7z"/>
<path d="M3598 4508 c-27 -22 -30 -53 -7 -81 11 -15 27 -27 35 -27 7 0 54 -16
104 -36 100 -40 134 -40 150 2 14 36 -2 60 -58 88 -57 28 -165 66 -190 66 -10
0 -25 -6 -34 -12z"/>
<path d="M2359 4192 c-94 -93 -108 -122 -71 -155 37 -34 63 -22 155 71 92 93
105 122 69 155 -35 32 -60 21 -153 -71z"/>
<path d="M4190 4120 c-29 -29 -25 -52 18 -107 21 -26 53 -70 71 -96 42 -61 71
-76 106 -53 37 24 32 61 -19 137 -88 132 -133 162 -176 119z"/>
<path d="M2038 3673 c-14 -16 -47 -132 -62 -220 -10 -62 58 -108 97 -65 9 9
23 51 31 92 9 41 20 91 26 110 14 48 13 57 -10 80 -25 25 -62 26 -82 3z"/>
<path d="M4485 3474 c-13 -14 -15 -34 -9 -137 4 -77 11 -130 20 -144 18 -29
64 -30 89 -3 16 18 17 33 12 136 -7 133 -20 164 -67 164 -15 0 -36 -7 -45 -16z"/>
<path d="M2026 2964 c-9 -8 -16 -28 -16 -43 0 -51 67 -226 94 -243 34 -23 86
5 86 46 0 32 -76 237 -92 247 -21 14 -55 10 -72 -7z"/>
<path d="M4388 2773 c-9 -10 -30 -45 -46 -78 -17 -33 -40 -73 -51 -90 -28 -40
-27 -80 1 -99 34 -24 54 -19 85 19 35 42 113 186 113 209 0 24 -36 56 -63 56
-13 0 -31 -8 -39 -17z"/>
<path d="M2402 2364 c-52 -36 -20 -89 117 -188 70 -51 91 -56 121 -26 39 39
27 64 -61 132 -138 107 -140 108 -177 82z"/>
<path d="M3905 2229 c-16 -11 -61 -36 -98 -55 -80 -41 -99 -69 -73 -109 24
-36 61 -32 153 16 114 60 133 76 133 109 0 58 -57 77 -115 39z"/>
<path d="M3043 2055 c-15 -10 -23 -27 -23 -44 0 -48 26 -60 153 -73 104 -10
118 -9 141 6 18 11 26 25 26 46 0 46 -20 56 -117 64 -48 4 -104 9 -123 12 -23
3 -43 0 -57 -11z"/>
<path d="M973 2862 c-116 -97 -145 -149 -105 -185 36 -32 63 -20 155 68 48 46
87 91 87 100 0 20 -44 65 -64 65 -8 0 -41 -22 -73 -48z"/>
<path d="M297 2768 c-35 -47 -57 -93 -57 -121 0 -48 61 -74 95 -41 9 9 29 43
46 75 25 50 28 63 18 82 -26 48 -68 50 -102 5z"/>
<path d="M626 2358 c-18 -16 -33 -50 -51 -112 -14 -48 -25 -98 -25 -110 0 -49
53 -78 88 -49 20 16 67 150 79 223 9 54 -49 85 -91 48z"/>
<path d="M554 1703 c-21 -22 -14 -103 18 -200 19 -56 28 -70 51 -78 30 -10 53
-1 71 27 10 17 -37 231 -56 256 -15 17 -64 15 -84 -5z"/>
<path d="M843 1120 c-24 -10 -38 -48 -29 -78 10 -31 161 -172 185 -172 27 0
61 34 61 62 0 22 -166 199 -186 197 -5 0 -19 -4 -31 -9z"/>
<path d="M2679 1013 c-104 -101 -114 -136 -48 -161 34 -13 49 -4 137 81 60 60
72 77 72 104 0 32 -28 63 -59 63 -7 0 -53 -39 -102 -87z"/>
<path d="M1365 726 c-59 -59 -11 -99 166 -141 73 -16 103 -5 107 43 4 41 -10
59 -51 67 -32 7 -158 42 -183 52 -7 3 -25 -7 -39 -21z"/>
<path d="M2116 704 c-48 -13 -95 -29 -102 -35 -8 -6 -14 -27 -14 -45 0 -53 31
-62 131 -42 138 29 187 64 159 116 -20 36 -58 37 -174 6z"/>
</g>
</svg>
